/* XPM */
static char * green_check_ball_20x20_xpm[] = {
"20 20 39 1",
" 	c None",
".	c #000000",
"+	c #00FF00",
"@	c #2B420F",
"#	c #304C11",
"$	c #365613",
"%	c #2D4910",
"&	c #2E4710",
"*	c #324F12",
"=	c #3C6015",
"-	c #446918",
";	c #476E19",
">	c #406316",
",	c #385914",
"'	c #4A731A",
")	c #54871E",
"!	c #578C1F",
"~	c #51821D",
"{	c #4C731A",
"]	c #253B0C",
"^	c #334F12",
"/	c #6FAA29",
"(	c #619722",
"_	c #4E7D1C",
":	c #2C450E",
"<	c #82C631",
"[	c #70A728",
"}	c #1F300B",
"|	c #314C11",
"1	c #6AA326",
"2	c #355413",
"3	c #395B14",
"4	c #436817",
"5	c #466918",
"6	c #23370C",
"7	c #416516",
"8	c #1C2D0A",
"9	c #263C0D",
"0	c #20320B",
"              ..    ",
"             .++.   ",
"             .++.   ",
"       @#$$%.++.    ",
"     &*=-;->.++.    ",
"    %,')!~{.++.]    ",
"    ^..//(_.++.:    ",
"   :.++.<[.++.=*}   ",
"   |.++..1.++.=2]   ",
"   $;.++..++.=3*@   ",
"   ^4.+++.++.=3*@   ",
"   &=5.++++.=3$#6   ",
"   6$74.+++.3$*&8   ",
"    &$=.++.3$^#]    ",
"    9&$,.+.^*#98    ",
"     9@%#.*#&9}     ",
"       0]::]}       ",
"                    ",
"                    ",
"                    "};
