/* XPM */
static char * check_ball_xpm[] = {
"20 20 126 2",
"  	c None",
". 	c #000000",
"+ 	c #030303",
"@ 	c #090C07",
"# 	c #36502D",
"$ 	c #547B48",
"% 	c #619152",
"& 	c #467039",
"* 	c #26421D",
"= 	c #00C3FF",
"- 	c #5FCCD2",
"; 	c #080808",
"> 	c #405639",
", 	c #85AA79",
"' 	c #8CB281",
") 	c #85AC79",
"! 	c #729E65",
"~ 	c #649455",
"{ 	c #598948",
"] 	c #0A0A0A",
"^ 	c #58704F",
"/ 	c #9FBF94",
"( 	c #AFC9A6",
"_ 	c #ABC7A2",
": 	c #9CBC91",
"< 	c #80A974",
"[ 	c #69995A",
"} 	c #040404",
"| 	c #3E5439",
"1 	c #9FC095",
"2 	c #C0D3B8",
"3 	c #A6C39C",
"4 	c #89B07D",
"5 	c #679857",
"6 	c #18300F",
"7 	c #0E110C",
"8 	c #88AD7C",
"9 	c #ADC8A5",
"0 	c #87AF7A",
"a 	c #3C6E2D",
"b 	c #346326",
"c 	c #020401",
"d 	c #3E5736",
"e 	c #9ABB8E",
"f 	c #84AE77",
"g 	c #3A6F2A",
"h 	c #386827",
"i 	c #1A3411",
"j 	c #638657",
"k 	c #9BBC91",
"l 	c #B6CDAE",
"m 	c #40792E",
"n 	c #396E29",
"o 	c #386829",
"p 	c #2F5623",
"q 	c #6F9B62",
"r 	c #8FB384",
"s 	c #A1BF98",
"t 	c #3F752C",
"u 	c #427231",
"v 	c #4F7942",
"w 	c #517746",
"x 	c #567B4A",
"y 	c #81A875",
"z 	c #8DB081",
"A 	c #8BAF7E",
"B 	c #3E772C",
"C 	c #417631",
"D 	c #57804B",
"E 	c #719166",
"F 	c #5A7651",
"G 	c #334D2A",
"H 	c #719964",
"I 	c #799F6C",
"J 	c #739D66",
"K 	c #6C985D",
"L 	c #427831",
"M 	c #537F46",
"N 	c #74936A",
"O 	c #829D7A",
"P 	c #3E5336",
"Q 	c #040703",
"R 	c #5B844F",
"S 	c #679059",
"T 	c #638E55",
"U 	c #5C8B4E",
"V 	c #427732",
"W 	c #568249",
"X 	c #6F9065",
"Y 	c #87A07F",
"Z 	c #76916E",
"` 	c #050704",
" .	c #253D1E",
"..	c #557F48",
"+.	c #59824B",
"@.	c #558148",
"#.	c #4F7E41",
"$.	c #5B854E",
"%.	c #76976C",
"&.	c #85A07D",
"*.	c #809A77",
"=.	c #2F4429",
"-.	c #2F4A27",
";.	c #4B723F",
">.	c #4A733E",
",.	c #4B753E",
"'.	c #4B743D",
").	c #608554",
"!.	c #77966D",
"~.	c #7E9875",
"{.	c #3B5433",
"].	c #203619",
"^.	c #436538",
"/.	c #4E7142",
"(.	c #587B4E",
"_.	c #69865F",
":.	c #76926D",
"<.	c #819A79",
"[.	c #728D6A",
"}.	c #2C4126",
"|.	c #030502",
"1.	c #2C4225",
"2.	c #4F6A47",
"3.	c #6A8562",
"4.	c #5E7756",
"5.	c #374C2F",
"                                        ",
"                . . . . .   . .         ",
"            + @ # $ % & * . = - .       ",
"          ; > , ' ) ! ~ { . = = .       ",
"        ] ^ / ( _ : < [ . = = . .       ",
"      } | 1 . . 2 3 4 5 . = = . 6 .     ",
"      7 8 . = = . 9 0 . = = . a b c     ",
"    . d e . = = . . f . = = . g h i .   ",
"    . j k l . = = . . = = . m n o p .   ",
"    . q r s . = = = . = = . t u v w .   ",
"    . x y z A . = = = = . B C D E F .   ",
"    . G H I J K . = = = . L M N O P .   ",
"      Q R S T U . = = . V W X Y Z `     ",
"      .  ...+.@.#.. = . $.%.&.*.=..     ",
"        . -.;.>.,.'.. ).!.Y ~.{..       ",
"          . ].^./.(._.:.<.[.}..         ",
"            . |.1.2.3.4.5.` .           ",
"                . . . . .               ",
"                                        ",
"                                        "};
