/* XPM */
static char * gray_ball_xpm[] = {
"20 20 81 1",
" 	c None",
".	c #1A1A1A",
"+	c #383838",
"@	c #444444",
"#	c #292929",
"$	c #080808",
"%	c #191919",
"&	c #545454",
"*	c #969696",
"=	c #9A9A9A",
"-	c #868686",
";	c #737373",
">	c #1F1F1F",
",	c #121212",
"'	c #5B5B5B",
")	c #B3B3B3",
"!	c #C5C5C5",
"~	c #B6B6B6",
"{	c #939393",
"]	c #797979",
"^	c #686868",
"/	c #535353",
"(	c #1C1C1C",
"_	c #2D2D2D",
":	c #A6A6A6",
"<	c #D0D0D0",
"[	c #DBDBDB",
"}	c #C2C2C2",
"|	c #959595",
"1	c #777777",
"2	c #5C5C5C",
"3	c #434343",
"4	c #060606",
"5	c #000000",
"6	c #636363",
"7	c #B9B9B9",
"8	c #D2D2D2",
"9	c #D9D9D9",
"0	c #BBBBBB",
"a	c #8F8F8F",
"b	c #666666",
"c	c #505050",
"d	c #7C7C7C",
"e	c #AEAEAE",
"f	c #B5B5B5",
"g	c #A1A1A1",
"h	c #818181",
"i	c #6D6D6D",
"j	c #626262",
"k	c #5E5E5E",
"l	c #373737",
"m	c #5F5F5F",
"n	c #989898",
"o	c #8D8D8D",
"p	c #6E6E6E",
"q	c #6B6B6B",
"r	c #7F7F7F",
"s	c #393939",
"t	c #303030",
"u	c #707070",
"v	c #656565",
"w	c #6A6A6A",
"x	c #838383",
"y	c #808080",
"z	c #0D0D0D",
"A	c #494949",
"B	c #888888",
"C	c #898989",
"D	c #414141",
"E	c #151515",
"F	c #404040",
"G	c #5D5D5D",
"H	c #727272",
"I	c #858585",
"J	c #828282",
"K	c #0B0B0B",
"L	c #262626",
"M	c #4F4F4F",
"N	c #555555",
"O	c #222222",
"P	c #0A0A0A",
"                    ",
"                    ",
"                    ",
"                    ",
"        .+@#$       ",
"      %&*=-;&>      ",
"     ,')!~{]^/(     ",
"     _:<[}|1^234    ",
"    567890a;b'c>    ",
"    5de7fghij2kl    ",
"    5m*nohp6mqrs    ",
"     trh]uvmwxy.    ",
"     zAqwvjpBCD     ",
"      EFGvHIJ3z     ",
"       KLMqNOP      ",
"         555        ",
"                    ",
"                    ",
"                    ",
"                    "};
