/* XPM */
static char * green_ball_20x20_xpm[] = {
"20 20 51 1",
" 	c None",
".	c #355A0D",
"+	c #3D680F",
"@	c #447411",
"#	c #3B640F",
"$	c #2F500B",
"%	c #39610E",
"&	c #3F6B10",
"*	c #4C8213",
"=	c #548E15",
"-	c #589516",
";	c #508714",
">	c #31530C",
",	c #477912",
"'	c #5C9C17",
")	c #6BB61B",
"!	c #6EBC1B",
"~	c #67AF1A",
"{	c #5F9C17",
"]	c #518914",
"^	c #487B12",
"/	c #426D10",
"(	c #7BD01F",
"_	c #89DE2D",
":	c #88DD2C",
"<	c #78CB1E",
"[	c #64AA19",
"}	c #375E0D",
"|	c #8BDE31",
"1	c #A1E354",
"2	c #8ADD28",
"3	c #28430A",
"4	c #3F680F",
"5	c #578E15",
"6	c #6FBD1C",
"7	c #A0E350",
"8	c #86DB22",
"9	c #437211",
"0	c #77C91E",
"a	c #85D922",
"b	c #5FA118",
"c	c #406D10",
"d	c #538D14",
"e	c #5B9A17",
"f	c #60A318",
"g	c #5B9516",
"h	c #579415",
"i	c #2D4C0B",
"j	c #254009",
"k	c #4B8013",
"l	c #29450A",
"                    ",
"                    ",
"                    ",
"       .+@@#$       ",
"     %&*=-=;@#>     ",
"    #,')!~{-]^%$    ",
"    /{(_:<['=;@}    ",
"   };)|112~'=]*&3   ",
"   456:778~'=]*9$   ",
"   @-[0aa6b-]*^c.   ",
"   /def[['g=]*^c.   ",
"   %*5---h=]*^@+i   ",
"   i@]d=]];*^@c%j   ",
"    %@*;**k^@/+$    ",
"    >%@,,,@/c+>j    ",
"     >.#+c&+%>3     ",
"       l$}}$3       ",
"                    ",
"                    ",
"                    "};
