/* XPM */
static char * red_ball_xpm[] = {
"20 20 106 2",
"  	c None",
". 	c #22100F",
"+ 	c #49241F",
"@ 	c #5A2A24",
"# 	c #391612",
"$ 	c #0C0202",
"% 	c #1D1514",
"& 	c #63403C",
"* 	c #B0766F",
"= 	c #B7776F",
"- 	c #AA5C52",
"; 	c #98443A",
"> 	c #732E25",
", 	c #2C0E0B",
"' 	c #150F0D",
") 	c #6A4844",
"! 	c #C89993",
"~ 	c #D7AEAA",
"{ 	c #CD9A94",
"] 	c #B46B62",
"^ 	c #A0483D",
"/ 	c #8F382D",
"( 	c #76291F",
"_ 	c #2A0B07",
": 	c #362320",
"< 	c #BE8A83",
"[ 	c #DFBFBB",
"} 	c #E6CDCA",
"| 	c #D5AAA5",
"1 	c #B66C62",
"2 	c #A04438",
"3 	c #933327",
"4 	c #842B20",
"5 	c #621D14",
"6 	c #090101",
"7 	c #000000",
"8 	c #784943",
"9 	c #CF9E98",
"0 	c #E0C0BD",
"a 	c #E5CAC7",
"b 	c #D1A09B",
"c 	c #B36359",
"d 	c #9F3D30",
"e 	c #932D20",
"f 	c #86261A",
"g 	c #762016",
"h 	c #2E0C08",
"i 	c #985A52",
"j 	c #C79089",
"k 	c #CF9F99",
"l 	c #CC9791",
"m 	c #BF7B73",
"n 	c #AA5044",
"o 	c #9B3628",
"p 	c #902A1D",
"q 	c #85271C",
"r 	c #813329",
"s 	c #49211C",
"t 	c #784039",
"u 	c #B47169",
"v 	c #B6726A",
"w 	c #AF635A",
"x 	c #A75147",
"y 	c #9A372B",
"z 	c #912B1E",
"A 	c #8A2A1D",
"B 	c #8E4137",
"C 	c #986059",
"D 	c #462926",
"E 	c #3E1E1A",
"F 	c #9F574F",
"G 	c #A2584E",
"H 	c #9E4A40",
"I 	c #983D32",
"J 	c #903023",
"K 	c #8A2A1E",
"L 	c #8F3E33",
"M 	c #9D645D",
"N 	c #946862",
"O 	c #201110",
"P 	c #110706",
"Q 	c #612D26",
"R 	c #8C433A",
"S 	c #8D3F35",
"T 	c #8A382E",
"U 	c #883328",
"V 	c #90443B",
"W 	c #A16961",
"X 	c #9D6E69",
"Y 	c #4F302C",
"Z 	c #1C0C0A",
"` 	c #57261F",
" .	c #7B3831",
"..	c #833F37",
"+.	c #8E5048",
"@.	c #9D6962",
"#.	c #976A64",
"$.	c #51312D",
"%.	c #110908",
"&.	c #0F0605",
"*.	c #321613",
"=.	c #623631",
"-.	c #7E534E",
";.	c #67403C",
">.	c #281917",
",.	c #0D0706",
"                                        ",
"                                        ",
"                                        ",
"                                        ",
"                                        ",
"                . + @ # $               ",
"            % & * = - ; > ,             ",
"          ' ) ! ~ { ] ^ / ( _           ",
"          : < [ } | 1 2 3 4 5 6         ",
"        7 8 9 0 a b c d e f g h         ",
"        7 i j k l m n o p q r s         ",
"        7 t u v w x y z A B C D         ",
"          E F G H I J K L M N O         ",
"          P Q R S T U V W X Y           ",
"            Z `  ...+.@.#.$.%.          ",
"              &.*.=.-.;.>.,.            ",
"                  7 7 7                 ",
"                                        ",
"                                        ",
"                                        "};
