/* XPM */
static char * yellow_ball_xpm[] = {
"20 20 101 2",
"  	c None",
". 	c #303003",
"+ 	c #5F5E12",
"@ 	c #6C6B1C",
"# 	c #4B4A08",
"$ 	c #0E0E00",
"% 	c #2B2B06",
"& 	c #7D7C29",
"* 	c #B9B873",
"= 	c #C1C072",
"- 	c #C0BF4C",
"; 	c #B4B230",
"> 	c #8D8C1B",
", 	c #3A3A03",
"' 	c #202003",
") 	c #838231",
"! 	c #D0CF96",
"~ 	c #DBDBAE",
"{ 	c #D0CF9C",
"] 	c #C2C163",
"^ 	c #BBB936",
"/ 	c #AAA825",
"( 	c #908E16",
"_ 	c #363503",
": 	c #434317",
"< 	c #C7C684",
"[ 	c #E3E3BC",
"} 	c #EAEACA",
"| 	c #D9D8AA",
"1 	c #C3C266",
"2 	c #B9B734",
"3 	c #ABA924",
"4 	c #9D9B1A",
"5 	c #78770E",
"6 	c #0B0B00",
"7 	c #000000",
"8 	c #949331",
"9 	c #D2D2A0",
"0 	c #E5E4BE",
"a 	c #E9E9C7",
"b 	c #D4D3A1",
"c 	c #C1C05D",
"d 	c #B5B42F",
"e 	c #A7A623",
"f 	c #9B9A1A",
"g 	c #8D8B12",
"h 	c #ADAC4B",
"i 	c #CBCA91",
"j 	c #D2D29F",
"k 	c #CFCF9A",
"l 	c #C6C57C",
"m 	c #BEBD44",
"n 	c #AFAE29",
"o 	c #A4A21F",
"p 	c #9C9A1B",
"q 	c #9F9E1D",
"r 	c #5D5C11",
"s 	c #949328",
"t 	c #C2C168",
"u 	c #C2C16C",
"v 	c #C1C058",
"w 	c #BFBE41",
"x 	c #B0AF2B",
"y 	c #A5A320",
"z 	c #A09F1D",
"A 	c #ACAA29",
"B 	c #BCBB41",
"C 	c #605F12",
"D 	c #4F4F0F",
"E 	c #BDBC3F",
"F 	c #BFBD41",
"G 	c #B2B02C",
"H 	c #A6A522",
"I 	c #ACAB27",
"J 	c #BEBC48",
"K 	c #B4B34B",
"L 	c #2F2F04",
"M 	c #181701",
"N 	c #7E7C14",
"O 	c #ADAB28",
"P 	c #A8A622",
"Q 	c #A3A120",
"R 	c #AFAD2C",
"S 	c #BFBE4F",
"T 	c #BBBA55",
"U 	c #6A6817",
"V 	c #272602",
"W 	c #72710E",
"X 	c #9E9D1C",
"Y 	c #A7A621",
"Z 	c #BFBE4A",
"` 	c #B9B74B",
" .	c #6B6A19",
"..	c #181702",
"+.	c #151401",
"@.	c #444306",
"#.	c #868516",
"$.	c #A7A52E",
"%.	c #8B891F",
"&.	c #36360C",
"*.	c #131301",
"                                        ",
"                                        ",
"                                        ",
"                                        ",
"                                        ",
"                . + @ # $               ",
"            % & * = - ; > ,             ",
"          ' ) ! ~ { ] ^ / ( _           ",
"          : < [ } | 1 2 3 4 5 6         ",
"        7 8 9 0 a b c d e f g ,         ",
"        7 h i j k l m n o p q r         ",
"        7 s t u v w x y z A B C         ",
"          D E F ^ G H z I J K L         ",
"          M N O I P Q R S T U           ",
"            V W X Y ; Z `  ...          ",
"              +.@.#.$.%.&.*.            ",
"                  7 7 7                 ",
"                                        ",
"                                        ",
"                                        "};
