/* XPM */
static char * yellow_arrow_xpm[] = {
"20 20 29 1",
" 	c None",
".	c #000000",
"+	c #211800",
"@	c #463300",
"#	c #251B00",
"$	c #130E00",
"%	c #010100",
"&	c #4E3800",
"*	c #CC9400",
"=	c #664A00",
"-	c #523B00",
";	c #765600",
">	c #FEBD0F",
",	c #FDD15C",
"'	c #FECA3D",
")	c #9E7300",
"!	c #5E4400",
"~	c #312400",
"{	c #7F5D00",
"]	c #FED053",
"^	c #FDDF8E",
"/	c #FDE298",
"(	c #FDD876",
"_	c #FDD56A",
":	c #563E00",
"<	c #291E00",
"[	c #0D0A00",
"}	c #FFFFFF",
"|	c #1F1700",
"                    ",
"                    ",
"                    ",
"    ..              ",
"    ....            ",
"    .+@#$%          ",
"    .&*=-&$.        ",
"    .;>,')!~$.      ",
"    .{]^/(_*:<[.    ",
"    .:}}}}}}_=|...  ",
"    .{]^/(_*:<[.    ",
"    .;>,')!~$.      ",
"    .&*=-&$.        ",
"    .+@#$%          ",
"    ....            ",
"    ..              ",
"                    ",
"                    ",
"                    ",
"                    "};
