/* XPM */
static char * yellow_ball_20x20_xpm[] = {
"20 20 58 1",
" 	c None",
".	c #6E5000",
"+	c #7E5B00",
"@	c #8E6700",
"#	c #7A5800",
"$	c #624700",
"%	c #765600",
"&	c #846000",
"*	c #9F7400",
"=	c #AE7E00",
"-	c #B68400",
";	c #A47700",
">	c #664A00",
",	c #946B00",
"'	c #BE8A00",
")	c #DEA100",
"!	c #E4A600",
"~	c #D69C00",
"{	c #BF8C00",
"]	c #A77A00",
"^	c #966D00",
"/	c #876300",
"(	c #FCB700",
"_	c #FEC11D",
":	c #FEC01B",
"<	c #F6B300",
"[	c #CF9700",
"}	c #725300",
"|	c #DFA300",
"1	c #FEC221",
"2	c #FECD4B",
"3	c #FEBF17",
"4	c #A67900",
"5	c #9E7300",
"6	c #523B00",
"7	c #7F5D00",
"8	c #AF8000",
"9	c #E6A700",
"0	c #FECC47",
"a	c #FEBD0F",
"b	c #D49A00",
"c	c #8C6600",
"d	c #CE9600",
"e	c #F4B100",
"f	c #FEBD0D",
"g	c #C48E00",
"h	c #866100",
"i	c #AC7D00",
"j	c #BC8900",
"k	c #C69000",
"l	c #B78600",
"m	c #B48300",
"n	c #5E4400",
"o	c #976E00",
"p	c #4E3800",
"q	c #8F6900",
"r	c #9C7100",
"s	c #563E00",
"                    ",
"                    ",
"                    ",
"       .+@@#$       ",
"     %&*=-=;@#>     ",
"    #,')!~{-]^%$    ",
"    /{(_:<['=;@}    ",
"   };|1223~'=45&6   ",
"   789:00ab'=45c$   ",
"   @-deff9g-]*^h.   ",
"   /ijkdd'l=45^h.   ",
"   %58---m=45^@+n   ",
"   n@4i=]4;5o@h%p   ",
"    %q*;55r^q/+$    ",
"    >%@,,,@/h+>p    ",
"     >.#+h&+%>6     ",
"       s$}}$6       ",
"                    ",
"                    ",
"                    "};
