/* XPM */
static char * check_ball_xpm[] = {
"20 20 106 2",
"  	c None",
". 	c #000000",
"+ 	c #030303",
"@ 	c #0A0A0A",
"# 	c #444444",
"$ 	c #696969",
"% 	c #7B7B7B",
"& 	c #5D5D5D",
"* 	c #353535",
"= 	c #B3C2A7",
"- 	c #708C58",
"; 	c #080808",
"> 	c #4C4C4C",
", 	c #999999",
"' 	c #A1A1A1",
") 	c #9A9A9A",
"! 	c #8A8A8A",
"~ 	c #7E7E7E",
"{ 	c #737373",
"] 	c #859D71",
"^ 	c #627B4D",
"/ 	c #656565",
"( 	c #B0B0B0",
"_ 	c #BDBDBD",
": 	c #BABABA",
"< 	c #ADADAD",
"[ 	c #969696",
"} 	c #838383",
"| 	c #97AB86",
"1 	c #040404",
"2 	c #4A4A4A",
"3 	c #B1B1B1",
"4 	c #CACACA",
"5 	c #B6B6B6",
"6 	c #9E9E9E",
"7 	c #828282",
"8 	c #566C43",
"9 	c #252525",
"0 	c #0F0F0F",
"a 	c #9C9C9C",
"b 	c #A2BD9E",
"c 	c #789774",
"d 	c #BCBCBC",
"e 	c #9D9D9D",
"f 	c #575757",
"g 	c #4E4E4E",
"h 	c #4B4B4B",
"i 	c #ACACAC",
"j 	c #88AC84",
"k 	c #9B9B9B",
"l 	c #525252",
"m 	c #282828",
"n 	c #767676",
"o 	c #C2C2C2",
"p 	c #5E764A",
"q 	c #5F5F5F",
"r 	c #565656",
"s 	c #878787",
"t 	c #A3A3A3",
"u 	c #698566",
"v 	c #6D8855",
"w 	c #5C5C5C",
"x 	c #666666",
"y 	c #6A6A6A",
"z 	c #A0A0A0",
"A 	c #688251",
"B 	c #668050",
"C 	c #5E5E5E",
"D 	c #6D6D6D",
"E 	c #414141",
"F 	c #8D8D8D",
"G 	c #848484",
"H 	c #6D8956",
"I 	c #4F633E",
"J 	c #6B6B6B",
"K 	c #858585",
"L 	c #919191",
"M 	c #494949",
"N 	c #050505",
"O 	c #717171",
"P 	c #7D7D7D",
"Q 	c #7A7A7A",
"R 	c #6E6E6E",
"S 	c #818181",
"T 	c #949494",
"U 	c #060606",
"V 	c #323232",
"W 	c #6C6C6C",
"X 	c #6F6F6F",
"Y 	c #727272",
"Z 	c #888888",
"` 	c #8E8E8E",
" .	c #3A3A3A",
"..	c #3E3E3E",
"+.	c #606060",
"@.	c #626262",
"#.	c #616161",
"$.	c #747474",
"%.	c #8C8C8C",
"&.	c #484848",
"*.	c #2C2C2C",
"=.	c #555555",
"-.	c #797979",
";.	c #373737",
">.	c #383838",
",.	c #424242",
"                                        ",
"                . . . . .   . .         ",
"            + @ # $ % & * . = - .       ",
"          ; > , ' ) ! ~ { . ] ^ .       ",
"        @ / ( _ : < [ } . | - . .       ",
"      1 2 3 . . 4 5 6 7 . ] 8 . 9 .     ",
"      0 a . b c . d e . ] - . f g +     ",
"    . h i . j j . . k . - 8 . f l m .   ",
"    . n < o . j c . . p - . q r l # .   ",
"    . s t 3 . j j u . v 8 . w w x x .   ",
"    . y [ z 6 . j j A B . & C D 7 $ .   ",
"    . E s F ! G . j H I . q J K L M .   ",
"      N O P Q n . j j . q R S T K U     ",
"      . V W X D $ . u . Y Z T `  ..     ",
"        . ..+.+.@.#.. $.Z T %.&..       ",
"          . *.=.#.J -.K ` S ;..         ",
"            . 1 >.C -.J ,.U .           ",
"                . . . . .               ",
"                                        ",
"                                        "};
