/* XPM */
static char * check_ball_xpm[] = {
"20 20 58 1",
" 	c None",
".	c #000000",
"+	c #00FF00",
"@	c #151F12",
"#	c #2D4226",
"$	c #35512D",
"%	c #1E3318",
"&	c #86AB7B",
"*	c #6E9B60",
"=	c #A7C49D",
"-	c #7CA76F",
";	c #13240D",
">	c #283324",
",	c #2D5521",
"'	c #040802",
")	c #55704C",
"!	c #366527",
"~	c #15270F",
"{	c #698C5D",
"]	c #9DBC93",
"^	c #3F742E",
"/	c #467338",
"(	c #2A4124",
"_	c #4E6D43",
":	c #82A775",
"<	c #83A977",
"[	c #537F46",
"}	c #6E8E64",
"|	c #31402C",
"1	c #263820",
"2	c #69915C",
"3	c #6A945C",
"4	c #518043",
"5	c #729268",
"6	c #728C6A",
"7	c #161E13",
"8	c #0A0F08",
"9	c #395730",
"0	c #557E48",
"a	c #527E44",
"b	c #76966C",
"c	c #7A9572",
"d	c #374932",
"e	c #10190D",
"f	c #314D29",
"g	c #496F3D",
"h	c #507644",
"i	c #75936C",
"j	c #758E6D",
"k	c #394B33",
"l	c #0B0F09",
"m	c #080D06",
"n	c #1E2C19",
"o	c #415A39",
"p	c #5D7656",
"q	c #4A5F43",
"r	c #1D261A",
"s	c #080C07",
"              ..    ",
"             .++.   ",
"             .++.   ",
"            .++.    ",
"      ..@#$%.++.    ",
"     .++.&*.++.     ",
"     .++.=-.++;     ",
"     >.++..++.,'    ",
"    .).+++.++.!~    ",
"    .{].++++.^/(    ",
"    ._:<.+++.[}|    ",
"     123.++.4567    ",
"     890a.+.bcd     ",
"      efgh.ijkl     ",
"       mnopqrs      ",
"         ...        ",
"                    ",
"                    ",
"                    ",
"                    "};
