/* XPM */
static char * check_ball_xpm[] = {
"20 20 125 2",
"  	c None",
". 	c #000000",
"+ 	c #030303",
"@ 	c #090C07",
"# 	c #36502D",
"$ 	c #547B48",
"% 	c #619152",
"& 	c #467039",
"* 	c #26421D",
"= 	c #00FF00",
"- 	c #080808",
"; 	c #405639",
"> 	c #85AA79",
", 	c #8CB281",
"' 	c #85AC79",
") 	c #729E65",
"! 	c #649455",
"~ 	c #598948",
"{ 	c #0A0A0A",
"] 	c #58704F",
"^ 	c #9FBF94",
"/ 	c #AFC9A6",
"( 	c #ABC7A2",
"_ 	c #9CBC91",
": 	c #80A974",
"< 	c #69995A",
"[ 	c #040404",
"} 	c #3E5439",
"| 	c #9FC095",
"1 	c #C0D3B8",
"2 	c #A6C39C",
"3 	c #89B07D",
"4 	c #679857",
"5 	c #18300F",
"6 	c #0E110C",
"7 	c #88AD7C",
"8 	c #ADC8A5",
"9 	c #87AF7A",
"0 	c #3C6E2D",
"a 	c #346326",
"b 	c #020401",
"c 	c #3E5736",
"d 	c #9ABB8E",
"e 	c #84AE77",
"f 	c #3A6F2A",
"g 	c #386827",
"h 	c #1A3411",
"i 	c #638657",
"j 	c #9BBC91",
"k 	c #B6CDAE",
"l 	c #40792E",
"m 	c #396E29",
"n 	c #386829",
"o 	c #2F5623",
"p 	c #6F9B62",
"q 	c #8FB384",
"r 	c #A1BF98",
"s 	c #3F752C",
"t 	c #427231",
"u 	c #4F7942",
"v 	c #517746",
"w 	c #567B4A",
"x 	c #81A875",
"y 	c #8DB081",
"z 	c #8BAF7E",
"A 	c #3E772C",
"B 	c #417631",
"C 	c #57804B",
"D 	c #719166",
"E 	c #5A7651",
"F 	c #334D2A",
"G 	c #719964",
"H 	c #799F6C",
"I 	c #739D66",
"J 	c #6C985D",
"K 	c #427831",
"L 	c #537F46",
"M 	c #74936A",
"N 	c #829D7A",
"O 	c #3E5336",
"P 	c #040703",
"Q 	c #5B844F",
"R 	c #679059",
"S 	c #638E55",
"T 	c #5C8B4E",
"U 	c #427732",
"V 	c #568249",
"W 	c #6F9065",
"X 	c #87A07F",
"Y 	c #76916E",
"Z 	c #050704",
"` 	c #253D1E",
" .	c #557F48",
"..	c #59824B",
"+.	c #558148",
"@.	c #4F7E41",
"#.	c #5B854E",
"$.	c #76976C",
"%.	c #85A07D",
"&.	c #809A77",
"*.	c #2F4429",
"=.	c #2F4A27",
"-.	c #4B723F",
";.	c #4A733E",
">.	c #4B753E",
",.	c #4B743D",
"'.	c #608554",
").	c #77966D",
"!.	c #7E9875",
"~.	c #3B5433",
"{.	c #203619",
"].	c #436538",
"^.	c #4E7142",
"/.	c #587B4E",
"(.	c #69865F",
"_.	c #76926D",
":.	c #819A79",
"<.	c #728D6A",
"[.	c #2C4126",
"}.	c #030502",
"|.	c #2C4225",
"1.	c #4F6A47",
"2.	c #6A8562",
"3.	c #5E7756",
"4.	c #374C2F",
"                                        ",
"                . . . . .   . .         ",
"            + @ # $ % & * . = = .       ",
"          - ; > , ' ) ! ~ . = = .       ",
"        { ] ^ / ( _ : < . = = . .       ",
"      [ } | . . 1 2 3 4 . = = . 5 .     ",
"      6 7 . = = . 8 9 . = = . 0 a b     ",
"    . c d . = = . . e . = = . f g h .   ",
"    . i j k . = = . . = = . l m n o .   ",
"    . p q r . = = = . = = . s t u v .   ",
"    . w x y z . = = = = . A B C D E .   ",
"    . F G H I J . = = = . K L M N O .   ",
"      P Q R S T . = = . U V W X Y Z     ",
"      . `  ...+.@.. = . #.$.%.&.*..     ",
"        . =.-.;.>.,.. '.).X !.~..       ",
"          . {.].^./.(._.:.<.[..         ",
"            . }.|.1.2.3.4.Z .           ",
"                . . . . .               ",
"                                        ",
"                                        "};
