/* XPM */
static char * newgreyarrow_xpm[] = {
"20 20 29 1",
" 	c None",
".	c #101010",
"+	c #262626",
"@	c #4B4B4B",
"#	c #5B5B5B",
"$	c #4E4E4E",
"%	c #424242",
"&	c #2D2D2D",
"*	c #5D5D5D",
"=	c #7C7C7C",
"-	c #666666",
";	c #606060",
">	c #696969",
",	c #878787",
"'	c #949494",
")	c #8E8E8E",
"!	c #747474",
"~	c #646464",
"{	c #535353",
"]	c #6C6C6C",
"^	c #929292",
"/	c #9E9E9E",
"(	c #A1A1A1",
"_	c #999999",
":	c #969696",
"<	c #616161",
"[	c #505050",
"}	c #3D3D3D",
"|	c #C4C4C4",
"                    ",
"                    ",
"                    ",
"    ..              ",
"    .+++            ",
"    .@#$%&          ",
"    .*=-;*%+        ",
"    .>,')!~{%+      ",
"    .]^/(_:=<[}.    ",
"    .;||||||:-@...  ",
"    .]^/(_:=<[}.    ",
"    .>,')!~{%+      ",
"    .*=-;*%+        ",
"    .@#$%&          ",
"    .+++            ",
"    ..              ",
"                    ",
"                    ",
"                    ",
"                    "};
