/* XPM */
static char * green_ball_xpm[] = {
"20 20 105 2",
"  	c None",
". 	c #151F12",
"+ 	c #2D4226",
"@ 	c #35512D",
"# 	c #1E3318",
"$ 	c #060A03",
"% 	c #171B15",
"& 	c #495D42",
"* 	c #84A57A",
"= 	c #86AB7B",
"- 	c #6E9B60",
"; 	c #5A884A",
"> 	c #3F6632",
", 	c #162711",
"' 	c #10140F",
") 	c #50644A",
"! 	c #A5C09C",
"~ 	c #B9CFB1",
"{ 	c #A7C49D",
"] 	c #7CA76F",
"^ 	c #5E904E",
"/ 	c #4D7E3D",
"( 	c #3C672E",
"_ 	c #13240D",
": 	c #283324",
"< 	c #96B48D",
"[ 	c #C7D9C1",
"} 	c #D4E1CF",
"| 	c #B5CDAD",
"1 	c #7DA86F",
"2 	c #5A8F49",
"3 	c #4A8139",
"4 	c #407431",
"5 	c #2D5521",
"6 	c #040802",
"7 	c #000000",
"8 	c #55704C",
"9 	c #ABC6A1",
"0 	c #C9DAC3",
"a 	c #D0E0CC",
"b 	c #ACC8A4",
"c 	c #76A468",
"d 	c #548C43",
"e 	c #468034",
"f 	c #3E742C",
"g 	c #366527",
"h 	c #15270F",
"i 	c #698C5D",
"j 	c #9DBC93",
"k 	c #ABC6A2",
"l 	c #A5C29B",
"m 	c #8DB280",
"n 	c #669955",
"o 	c #4D873B",
"p 	c #437D30",
"q 	c #3F742E",
"r 	c #467338",
"s 	c #2A4124",
"t 	c #4E6D43",
"u 	c #82A775",
"v 	c #83A977",
"w 	c #76A168",
"x 	c #669757",
"y 	c #50873E",
"z 	c #437E31",
"A 	c #417830",
"B 	c #537F46",
"C 	c #6E8E64",
"D 	c #31402C",
"E 	c #263820",
"F 	c #69915C",
"G 	c #6A945C",
"H 	c #5F8E50",
"I 	c #548743",
"J 	c #477D35",
"K 	c #518043",
"L 	c #729268",
"M 	c #728C6A",
"N 	c #161E13",
"O 	c #0A0F08",
"P 	c #395730",
"Q 	c #557E48",
"R 	c #527E44",
"S 	c #4C7B3D",
"T 	c #487838",
"U 	c #578149",
"V 	c #76966C",
"W 	c #7A9572",
"X 	c #374932",
"Y 	c #10190D",
"Z 	c #314D29",
"` 	c #496F3D",
" .	c #507644",
"..	c #5F8254",
"+.	c #75936C",
"@.	c #758E6D",
"#.	c #394B33",
"$.	c #0B0F09",
"%.	c #080D06",
"&.	c #1E2C19",
"*.	c #415A39",
"=.	c #5D7656",
"-.	c #4A5F43",
";.	c #1D261A",
">.	c #080C07",
"                                        ",
"                                        ",
"                                        ",
"                                        ",
"                                        ",
"                . + @ # $               ",
"            % & * = - ; > ,             ",
"          ' ) ! ~ { ] ^ / ( _           ",
"          : < [ } | 1 2 3 4 5 6         ",
"        7 8 9 0 a b c d e f g h         ",
"        7 i j k l m n o p q r s         ",
"        7 t u v w x y z A B C D         ",
"          E F G H I J A K L M N         ",
"          O P Q R S T U V W X           ",
"            Y Z `  ...+.@.#.$.          ",
"              %.&.*.=.-.;.>.            ",
"                  7 7 7                 ",
"                                        ",
"                                        ",
"                                        "};
