/* XPM */
static char * red_ball_20x20_xpm[] = {
"20 20 52 1",
" 	c None",
".	c #600D0D",
"+	c #6E0F0F",
"@	c #7C1111",
"#	c #6A0F0F",
"$	c #550C0C",
"%	c #670E0E",
"&	c #731010",
"*	c #8A1313",
"=	c #981515",
"-	c #9F1616",
";	c #8F1414",
">	c #590C0C",
",	c #811212",
"'	c #A61717",
")	c #C21B1B",
"!	c #C71C1C",
"~	c #BB1A1A",
"{	c #A6171A",
"]	c #911414",
"^	c #831212",
"/	c #751012",
"(	c #DC1F1F",
"_	c #E03737",
":	c #E03535",
"<	c #D71E1E",
"[	c #B41919",
"}	c #630E0E",
"|	c #E03B3B",
"1	c #E65F63",
"2	c #DF323A",
"3	c #470A0A",
"4	c #6E0F11",
"5	c #981518",
"6	c #C91C1C",
"7	c #E55C62",
"8	c #DE2B33",
"9	c #B91A1A",
"0	c #7A1111",
"a	c #D51E1E",
"b	c #DE2932",
"c	c #AB1818",
"d	c #751010",
"e	c #961515",
"f	c #A41717",
"g	c #AD1818",
"h	c #9F1619",
"i	c #9D1616",
"j	c #520B0B",
"k	c #440909",
"l	c #881313",
"m	c #4B0A0A",
"                    ",
"                    ",
"                    ",
"       .+@@#$       ",
"     %&*=-=;@#>     ",
"    #,')!~{-]^%$    ",
"    /{(_:<['=;@}    ",
"   };)|112~'=]*&3   ",
"   456:7789'=]*0$   ",
"   @-[abb6c-]*^d.   ",
"   /efg[['h=]*^d.   ",
"   %*5---i=]*^@+j   ",
"   j@]e=]];*^@d%k   ",
"    %@*;**l^@/+$    ",
"    >%@,,,@/d+>k    ",
"     >.#+d&+%>3     ",
"       m$}}$3       ",
"                    ",
"                    ",
"                    "};
