/* XPM */
static char * yellow_ball_xpm[] = {
"20 20 113 2",
"  	c None",
". 	c #000000",
"+ 	c #050500",
"@ 	c #131300",
"# 	c #7C7B0B",
"$ 	c #ACAA25",
"% 	c #BEBC37",
"& 	c #9E9D1B",
"* 	c #666403",
"= 	c #070700",
"- 	c #0F0F00",
"; 	c #89870E",
"> 	c #C2C16F",
", 	c #C4C37D",
"' 	c #C2C171",
") 	c #C1C052",
"! 	c #C1BF3A",
"~ 	c #B6B42F",
"{ 	c #A6A521",
"] 	c #535300",
"^ 	c #A7A522",
"/ 	c #CBCA94",
"( 	c #D5D5A4",
"_ 	c #D3D2A0",
": 	c #C8C891",
"< 	c #C2C169",
"[ 	c #C2C143",
"} 	c #AAA825",
"| 	c #A3A21E",
"1 	c #626001",
"2 	c #85840E",
"3 	c #CCCB95",
"4 	c #DEDDB1",
"5 	c #E4E4BD",
"6 	c #DFDFB4",
"7 	c #D0CF9B",
"8 	c #C3C278",
"9 	c #C2C141",
"0 	c #B5B32E",
"a 	c #A19F1E",
"b 	c #9A9819",
"c 	c #4A4900",
"d 	c #1D1D00",
"e 	c #C3C274",
"f 	c #D9D8AA",
"g 	c #E7E7C2",
"h 	c #F0F0D5",
"i 	c #E6E6C1",
"j 	c #D5D4A2",
"k 	c #C3C276",
"l 	c #B3B12C",
"m 	c #979516",
"n 	c #8B8A10",
"o 	c #87850E",
"p 	c #C8C78F",
"q 	c #DEDEB3",
"r 	c #EAE9C7",
"s 	c #F4F4DD",
"t 	c #D2D29F",
"u 	c #C2C273",
"v 	c #C2C03B",
"w 	c #AFAE2A",
"x 	c #908E13",
"y 	c #4F4F00",
"z 	c #B9B732",
"A 	c #E0DFB5",
"B 	c #E3E2BA",
"C 	c #C6C589",
"D 	c #C1C062",
"E 	c #BCBB35",
"F 	c #AEAC27",
"G 	c #A09F1D",
"H 	c #959316",
"I 	c #C1C04C",
"J 	c #C4C481",
"K 	c #CDCD98",
"L 	c #C5C586",
"M 	c #B4B32D",
"N 	c #A9A824",
"O 	c #A4A21F",
"P 	c #9C9B1B",
"Q 	c #A8A723",
"R 	c #ACAA27",
"S 	c #C4C37B",
"T 	c #C1C05A",
"U 	c #B6B531",
"V 	c #9E9D1D",
"W 	c #787709",
"X 	c #C1C058",
"Y 	c #C2C045",
"Z 	c #C2C047",
"` 	c #C1C060",
" .	c #85830C",
"..	c #090900",
"+.	c #C0BF39",
"@.	c #BDBB36",
"#.	c #B1B02A",
"$.	c #C2C03F",
"%.	c #C1C066",
"&.	c #0B0B00",
"*.	c #AFAD28",
"=.	c #B2B02B",
"-.	c #C1C04E",
";.	c #6E6C05",
">.	c #747307",
",.	c #A4A321",
"'.	c #C1BF56",
").	c #83810C",
"!.	c #575600",
"~.	c #949315",
"{.	c #6A6803",
"].	c #6C6A03",
"^.	c #7A7909",
"                                        ",
"                . . . . .               ",
"            + @ # $ % & * = .           ",
"          - ; > , ' ) ! ~ { ] .         ",
"        @ ^ / ( _ : < [ ~ } | 1 .       ",
"      = 2 3 4 5 6 7 8 9 0 $ a b c .     ",
"      d e f g h i j k 9 l $ | m n +     ",
"    . o p q r s r t u v w } a m x y .   ",
"    . z : f A B f C D E F { G H x # .   ",
"    . I J 3 K / L < [ M N O P P Q Q .   ",
"    . R < S 8 < T 9 U $ | & V w 9 $ .   ",
"    . W I X ) Y E ~ R O V G F Z `  ..   ",
"      ..M +.@.z 0 R { G G #.$.%.Z &.    ",
"      . 1 *.=.w $ { a a 0 -.%.T ;..     ",
"        . >.a a O | ,.U -.%.'.)..       ",
"          . !.~.| F E Z T $.{..         ",
"            . = ].V E F ^.&..           ",
"                . . . . .               ",
"                                        ",
"                                        "};
