/* XPM */
static char * gray_ball_xpm[] = {
"20 20 57 1",
" 	c None",
".	c #505050",
"+	c #5B5B5B",
"@	c #676767",
"#	c #585858",
"$	c #474747",
"%	c #565656",
"&	c #606060",
"*	c #747474",
"=	c #7E7E7E",
"-	c #848484",
";	c #777777",
">	c #4A4A4A",
",	c #6B6B6B",
"'	c #8A8A8A",
")	c #A1A1A1",
"!	c #A6A6A6",
"~	c #9C9C9C",
"{	c #8B8B8B",
"]	c #7A7A7A",
"^	c #6D6D6D",
"/	c #626262",
"(	c #B7B7B7",
"_	c #C1C1C1",
":	c #C0C0C0",
"<	c #B3B3B3",
"[	c #979797",
"}	c #535353",
"|	c #A3A3A3",
"1	c #C2C2C2",
"2	c #CDCDCD",
"3	c #BFBFBF",
"4	c #797979",
"5	c #737373",
"6	c #3B3B3B",
"7	c #5C5C5C",
"8	c #808080",
"9	c #A7A7A7",
"0	c #CCCCCC",
"a	c #BDBDBD",
"b	c #9A9A9A",
"c	c #666666",
"d	c #969696",
"e	c #B1B1B1",
"f	c #8E8E8E",
"g	c #616161",
"h	c #7D7D7D",
"i	c #898989",
"j	c #909090",
"k	c #858585",
"l	c #838383",
"m	c #444444",
"n	c #6E6E6E",
"o	c #383838",
"p	c #686868",
"q	c #717171",
"r	c #3E3E3E",
"                    ",
"                    ",
"                    ",
"       .+@@#$       ",
"     %&*=-=;@#>     ",
"    #,')!~{-]^%$    ",
"    /{(_:<['=;@}    ",
"   };|1223~'=45&6   ",
"   789:00ab'=45c$   ",
"   @-deaa9f-]*^g.   ",
"   /hijdd'k=45^g.   ",
"   %58---l=45^@+m   ",
"   m@4h=]4;5n@g%o   ",
"    %p*;55q^p/+$    ",
"    >%@,,,@/g+>o    ",
"     >.#+g&+%>6     ",
"       r$}}$6       ",
"                    ",
"                    ",
"                    "};
