/* XPM */
static char * icon_xpm[] = {
"48 48 257 2",
"  	c None",
". 	c #0A1E0C",
"+ 	c #02923A",
"@ 	c #026A2A",
"# 	c #B19368",
"$ 	c #025522",
"% 	c #947853",
"& 	c #024321",
"* 	c #785937",
"= 	c #623E1E",
"- 	c #8A6A43",
"; 	c #027252",
"> 	c #023116",
", 	c #71522E",
"' 	c #5C3E20",
") 	c #02665E",
"! 	c #02322E",
"~ 	c #866E4C",
"{ 	c #023F3A",
"] 	c #E2C69D",
"^ 	c #675335",
"/ 	c #826B4D",
"( 	c #473723",
"_ 	c #0E3A6E",
": 	c #625E5A",
"< 	c #06425A",
"[ 	c #02745A",
"} 	c #866A42",
"| 	c #DBC198",
"1 	c #031641",
"2 	c #1A461E",
"3 	c #062A65",
"4 	c #065A6A",
"5 	c #707A88",
"6 	c #164E86",
"7 	c #029C3E",
"8 	c #0D366D",
"9 	c #066062",
"0 	c #162A16",
"a 	c #021E51",
"b 	c #066E5E",
"c 	c #0E3E80",
"d 	c #CBB08B",
"e 	c #363E56",
"f 	c #154A84",
"g 	c #423422",
"h 	c #028236",
"i 	c #5A6E84",
"j 	c #021E58",
"k 	c #02A244",
"l 	c #0A3266",
"m 	c #506686",
"n 	c #9D8259",
"o 	c #C6A670",
"p 	c #114684",
"q 	c #39455F",
"r 	c #565A62",
"s 	c #0A564A",
"t 	c #52522A",
"u 	c #1E5E9A",
"v 	c #207BC7",
"w 	c #062659",
"x 	c #2E241E",
"y 	c #1E3216",
"z 	c #1A6AB6",
"A 	c #B69667",
"B 	c #02A844",
"C 	c #3A562E",
"D 	c #322E2A",
"E 	c #192544",
"F 	c #4A3E22",
"G 	c #062A72",
"H 	c #0A3E8B",
"I 	c #155296",
"J 	c #1D76C3",
"K 	c #0E3A72",
"L 	c #362A1A",
"M 	c #283E60",
"N 	c #02AE48",
"O 	c #1E629E",
"P 	c #026E2E",
"Q 	c #023636",
"R 	c #121E43",
"S 	c #A3855D",
"T 	c #0A3683",
"U 	c #1A5A98",
"V 	c #0E468C",
"W 	c #261E0E",
"X 	c #09327C",
"Y 	c #0B2E62",
"Z 	c #BE9E6B",
"` 	c #026529",
" .	c #062667",
"..	c #182A51",
"+.	c #0B3A85",
"@.	c #027C34",
"#.	c #363A46",
"$.	c #1A6EBB",
"%.	c #54361C",
"&.	c #103E77",
"*.	c #806644",
"=.	c #8C8070",
"-.	c #A58B64",
";.	c #022E3A",
">.	c #062262",
",.	c #021A4C",
"'.	c #325A92",
").	c #16366D",
"!.	c #082256",
"~.	c #0E4288",
"{.	c #F0D3A7",
"].	c #1662B2",
"^.	c #02864C",
"/.	c #122657",
"(.	c #7A4E2A",
"_.	c #02123A",
":.	c #0B326A",
"<.	c #162E63",
"[.	c #0E4A91",
"}.	c #0A3675",
"|.	c #9E948A",
"1.	c #163A74",
"2.	c #124E9B",
"3.	c #062A6C",
"4.	c #928E86",
"5.	c #0E4292",
"6.	c #02324A",
"7.	c #84613B",
"8.	c #664C2F",
"9.	c #0E4694",
"0.	c #56422E",
"a.	c #0B326E",
"b.	c #827E7A",
"c.	c #1E325A",
"d.	c #5D4B2D",
"e.	c #02B84A",
"f.	c #1E3F73",
"g.	c #042622",
"h.	c #165290",
"i.	c #165EA5",
"j.	c #122B5C",
"k.	c #0E4282",
"l.	c #062661",
"m.	c #52545A",
"n.	c #423A1E",
"o.	c #0B2E66",
"p.	c #12529D",
"q.	c #7B5F3F",
"r.	c #165AA0",
"s.	c #D4BA93",
"t.	c #C5AA85",
"u.	c #028E3A",
"v.	c #9A7E58",
"w.	c #0A3A7B",
"x.	c #0C367B",
"y.	c #724C28",
"z.	c #1B62A2",
"A.	c #06225A",
"B.	c #024E32",
"C.	c #12467A",
"D.	c #AD8D63",
"E.	c #715A3A",
"F.	c #1A66AC",
"G.	c #8B7352",
"H.	c #062E6E",
"I.	c #025C24",
"J.	c #14569D",
"K.	c #021A56",
"L.	c #0B2252",
"M.	c #0A2A64",
"N.	c #024D1F",
"O.	c #165EAB",
"P.	c #564A2A",
"Q.	c #E6CAA0",
"R.	c #16326A",
"S.	c #124289",
"T.	c #0E3674",
"U.	c #023A17",
"V.	c #442E1A",
"W.	c #1C72BF",
"X.	c #124692",
"Y.	c #423E3A",
"Z.	c #028256",
"`.	c #0E4A97",
" +	c #124E93",
".+	c #12224D",
"++	c #0E3A76",
"@+	c #18468C",
"#+	c #064A70",
"$+	c #665A4A",
"%+	c #5C462C",
"&+	c #02742F",
"*+	c #0E3E89",
"=+	c #092A5D",
"-+	c #BE9A6A",
";+	c #0A265F",
">+	c #C29E6E",
",+	c #0A3273",
"'+	c #061A4D",
")+	c #124278",
"!+	c #0D428E",
"~+	c #0E2658",
"{+	c #028836",
"]+	c #1662AC",
"^+	c #0A2E73",
"/+	c #0A2E6C",
"(+	c #061E58",
"_+	c #766252",
":+	c #6E4C2A",
"<+	c #164E8E",
"[+	c #B99A6C",
"}+	c #02924E",
"|+	c #02223A",
"1+	c #133266",
"2+	c #BAA282",
"3+	c #5E6270",
"4+	c #02B249",
"5+	c #026A42",
"6+	c #062E73",
"7+	c #0A2A6A",
"8+	c #523A22",
"9+	c #165AA7",
"0+	c #02963E",
"a+	c #051A46",
"b+	c #3D2E1C",
"c+	c #1B5EA0",
"d+	c #2E2A16",
"e+	c #533F28",
"f+	c #B29A76",
"g+	c #12468D",
"h+	c #124280",
"i+	c #1A569E",
"j+	c #EBCEA2",
"k+	c #0E3A7C",
"l+	c #7E5A35",
"m+	c #0A265A",
"n+	c #021A52",
"o+	c #C5A26F",
"p+	c #06406E",
"q+	c #1A5692",
"r+	c #0E5222",
"s+	c #1A62A9",
"t+	c #644625",
"u+	c #262226",
"v+	c #86765E",
"w+	c #1966B4",
"x+	c #12264F",
"y+	c #1456A3",
"z+	c #06225E",
"A+	c #CCA873",
"B+	c #363236",
"C+	c #4C424E",
"D+	c #061E50",
"E+	c #3A2612",
"F+	c #1A5696",
"G+	c #134A8E",
"H+	c #705637",
"1 x+x+..j.<.<.R.).).).1.1.1.1.1.).).).R.R.R.<.<.<.j.<.j.j.j.j././.~+/./.x+.+.+.+x+.+.+.+.+R R R ",
"a+'+D+D+!.w =+M.M./+a./+/+/+/+/+,+/+M./+l. . .l.l.l.z+A.A.j (+j j D+,.,.n+n+,.,.1 ,.,.1 1 1 1 _.",
"a+'+!.m+m+;+M./+a.a.T.T.x.x.x.,+}.^+/+/+/+/+3. . .l.l.z+z+A.A.(+(+(+(+K.a D+D+n+,.,.,.1 1 _.1 1 ",
"a+D+!.L.;+o.a.,+R.,+}.T x.x.x.k+x.}.,+^+H.3.7+7+3 3  . .l.>.z+z+j (+j A.(+j K.D+(+'+,.,.,.a+1 _.",
"D+D+!.w M.o.a.}.k+k+k+k+k+c k+x.T T }.,+,+6+H.G 7+H.3 ;+ . .l.l.>.z+(+(+(+A.j j j (+a D+,.,.a+1 ",
"D+!.w =+Y o.T.x.k+k+c *+*++.+.*+k+w.T X X ,+^+^+6+7+/+3.3 3  .>.l.l. .l.z+z+z+(+D+j (+n+'+'+1 ,.",
"D+L.L.M.:.:.T.k+c *+~.*+*+*+*+*++.+.T X X X 6+6+6+G 3.3. . . . .l.>.>.>.z+z+z+z+A.(+A.j a D+'+a+",
"D+A.;+M.o.a.++k+*+S.S.S.S.S.S.!+*++.+.T X X ,+^+^+H.6+p+) ^.B B B N }+; < >.z+z+A.j (+A.D+,.,.1 ",
"D+w m+Y a.T.k+&.*+S.g+X.5.5.*+*+H +.+.T X X X 6+G #+Z.B e.4+e.e.e.0+&+` B.l.l.>.l.A.A.A.j a a ,.",
"L.L.=+o.:.T.k+c S.!+S.9.X.5.!+!+H +.T T T X 6+6+b B N e.4+4+e.B P N.{ 6.w z+>.l.z+>.z+A.(+'+,.'+",
"A.m+;+o.a.++k+k.S.9.S.9.9.9.!+5.H +.T X X X 6+[ N N N 4+4+e.+ $ { ;.>.z+>.z+z+l.l.z+z+A.A.j ,.,.",
"L.L.=+o.a.x.c *+S.g+X.X.9.!+!+H H +.T T X X [ B B N N B e.u.N.! A.(+j j j z+z+>.l.l.z+A.A.(+a '+",
"A.m+M./+8 T.c ~.g+9.9.X.9.5.5.H H +.+.T X 9 k B k B B N + & ;.K.K.K.j j j >.z+>. .l.>.A.A.j a a ",
"L.m+=+:.a.k+c ~.S.g+X.5.9.5.5.H H !++.T p+0+7 7 k k B k $ ! K.K.K.j j z+>.>. .3 l. .l.l.A.A.a '+",
"L.;+=+/+,+k+k+~.S.9.9.5.9.9.5.5.H 4 Z.9 ; 0+7 7 7 k B @ > ,.,.n+K.K.j j >.>. . . . .l.l.A.A.j D+",
"A.m+M.a.8 k+*+~.9.X.9.9.5.5.5.H H #+{+u.+ + + + 7 7 + & |+K.1 n+K.j j >. . . .3. .3  .l.A.A.A.a ",
"A.m+M./+a.k+*+~.!+9.9.9.5.5.5.H +.w.@.h {+u.+ + + 7 P g.1 K.1 K.j >. . .3. . .3. . . . .z+A.A.D+",
"A.;+M.:.T.k+c *+X.X.9.9.9.5.H H +.T 5+@.h {+{+{++ 0+@.{ 1 K.K.j >.>. .3.G G G 3.3.3. .3 l.A.A.A.",
"w =+M./+}.x.c ~.9.X.9.9.9.9.H H +.X s &+&+@.h h {+{++ 7 @.{ K.j  . . .G 6+H.G 6+3.3.3 3 l.A.A.A.",
"A.m+M./+,+++H !+g+9.`.9.9.5.5.+.k+C+C @ P &+&+@.@.{+{+` Q g.>.>.>. .G 6+G G H.3.3.H.3.3 3 w A.!.",
"A.=+M./+,+x.w.H S.X.9.9.9.5.5.q 8.(.t ` ` ` @ &+&+` U.y 0.#.;+>. . .G 6+6+6+6+6+H.H.3.3 3 3 w A.",
"A.;+M./+,+k+*+~.9.X.`.9.5.q 8.(.y.y.P.$ I.` ` I.U.0 F q.7.7.E.C+R.G G G 6+6+6+H.H.H.H.3 3 l.w w ",
"A.m+Y /+,+}.+.H 9.X.9.X.|.n 8.= t+t+t+N.$ N.> . g H+* l+l+l+q.7.} : 6+6+6+6+X 6+6+H.,+H.Y 3 w w ",
"A.l.M.^+}.w.H *+!+5.9.5 | Q.d G.' %.' 2 > . d+d., :+, H+:+H+- v.S % m.6+6+,+X ,+,+,+H.H.3 3 l.A.",
"A.l.M./+,+}.H H 9.9.'.t.s.| Q.{.o q.%.E+W L = d.8.t+t+, - S # -.n % ~ q 6+6+,+,+,+,+H.H.3 3 =+w ",
"m+=+3 ^+}.w.+.~.5.9.4.d d s.| ] {.{.t.q.V.E+e+' e+%+} A >+-+D.S v.v+~ _+M l ,+X ,+a.}.:.l H.3 w ",
"A.M.H./+X w.+.!+5.5.m |.d s.s.| ] Q.{.j+f+%+g e+7.D.o o -+A D.S v.% ~ $+M ,+,+}.}.,+,+l /+Y 3 w ",
"w l.M.6+}.T H H 9.9.!+S.m 2+| | ] Q.Q.j+{.j+G.v.A+A+o+>+-+A D.-.v._+e 3 3 H.,+,+}.}.}.,+l 3 3 3 ",
"m+l.o.,+}.T H !+9.9.9.*++./ -.d | ] Q.j+j+Q.H+*.A+A+o+o+-+[+D.G.P...D+A.3 H.l X }.}.}.}.:.l M.=+",
"A.M.3./+X w.H !+`.9.!+!+*+G.% % [+| Q.Q.{.# 0.%+D.A+o+>+[+n H+( b+E A.l.l.H.,+}.w.w.w.:.}.H.H.3 ",
"w M.H.a.}.+.H !+`.`.9.!+H =.D.S v.S t.] s./ ^ ^ 7.o+A+D.*.%+8+( g E A.l.3 /+}.}.}.}.w.}.8 l Y =+",
"w l.o.}.w.c !+9.`.2.`.9.!+=.o+>+A D.S # # G.~ q.* % % H+8.d.e+8+g E z+3 /+a.}.w.w.c _ }.}.l H.Y ",
"w 3 H.,+}.H !+9.`.2.2.`.9.b.o o o+-+[+-.S n % *.7.q.* H+8.P.e+( L x+w H.,+}.++k+w.c ++T.8 8 l Y ",
"m+M.o.}.k+H V `.2.p.p.2.`.5 o+>+Z Z A A # -.v.} *.q.E.^ d.e+g b+L .+M./+}.w.k+c k.c c ++K 8 :.Y ",
"w 3 :.}.c k.V `.p.p.y+p.2.i o+>+-+[+A # D.-.v.*.q.H+8.%+e+n.b+E+x x+3 ,+T.c H c k.k.k.k+w._ :.l ",
"=+o.:.8 c ~.`.2.p.9+y+9+p.I i -.A A D.D.-.S v.q., ^ P.e+( b+d+u+.+l./+}.w.c k.C.k.k.)+&.K 8 8 :.",
"l.o.}.}.c V [.p.y+9+9+O.9+p.`.f 3+-.D.S S n % E.8.d.F ( b+x E A.3 H.:.k+c ~.~.p S.S.C.h+&._ ).8 ",
"=+M.l w.c V  +p.9+O.O.O.9+y+2.X.H f.: v.n % G.8.%+e+( D ..;+l.3 M./+}.c k.p g+V f f S.C.&.K 8 :.",
"3 o.a.w.c V  +p.9+O.]+].O.9+y+2.X.H w.f.r G.~ d.e+B+..~+3 3 M./+,+T.k+k.g+V G+G+[.f S.p )+&._ 8 ",
"m+3 :.K k.V  +p.i.]+].].].].9+y+ +V *+k+}.f.m.Y...o.M.3./+/+,+}.++k+k.p G+6 G+f G+f f h+)+&._ 8 ",
"=+o.}.w.k.V  +J.O.O.].w+w+w+]+O.y+2.9.V c k+T.T.,+,+a.,+}.}.w.k+~.p f  + +h. +<+G+G+f p )+)+&.8 ",
"w H.:.w.k.[.p.y+O.F.z w+z w+w+].O.y+J. +G+V ~.w.x.}.w.w.w.~.~.V G+G+p.q+I I F+h.h.<+f p C.&._ _ ",
"=+l }.w.k.V p.r.]+w+z z $.z z z w+O.9+y+J. + +V ~.~.~.V ~.V  + +I I I U i+J.F+h.h.h.<+f @+)+&._ ",
"=+H.8 K k.[.p.y+]+w+z $.W.W.W.$.$.w+w+]+i.9+p.p. + + + +p.I p.J.r.r.c+r.c+U U F+h.h.6 G+C.C.&._ ",
"=+Y }.c V  +p.r.F.z z z W.W.J W.J $.z z w+w+i.i.y+r.r.r.r.i.i.i.z.i.c+c+u u u U F+J.h.6 f C.)+&.",
"=+l }.p+k.[.J.i.w+$.$.W.J J J J J W.W.$.z w+]+]+]+O.i.s+]+s+s+z.]+s+s+s+s+c+c+u U q+h.6 f f )+&.",
"3 l 8 c V [.J.i.w+$.W.W.J v J v v W.W.W.W.$.z z z z w+F.F.]+w+s+F.z.z.O z.z.u c+U U q+h.6 f C.)+",
"Y :.K p+V  +J.i.$.W.W.J v v v v v J J W.W.W.W.$.$.z z z F.z w+F.F.F.F.F.F.O z.u u U q+h.6 f C.)+"};
